<?xml version="1.0" encoding="us-ascii" standalone="no"?><svg xmlns="http://www.w3.org/2000/svg" xmlns:xlink="http://www.w3.org/1999/xlink" contentStyleType="text/css" height="362px" preserveAspectRatio="none" style="width:469px;height:362px;background:#FFFFFF;" version="1.1" viewBox="0 0 469 362" width="469px" zoomAndPan="magnify"><defs/><g><ellipse cx="224.75" cy="20" fill="#222222" rx="10" ry="10" style="stroke:#222222;stroke-width:1.0;"/><rect fill="#F1F1F1" height="33.9688" rx="12.5" ry="12.5" style="stroke:#181818;stroke-width:0.5;" width="190" x="129.75" y="50"/><text fill="#000000" font-family="sans-serif" font-size="12" lengthAdjust="spacing" textLength="170" x="139.75" y="71.1387">&#1055;&#1086;&#1083;&#1091;&#1095;&#1077;&#1085;&#1080;&#1077; &#1082;&#1086;&#1084;&#1084;&#1077;&#1085;&#1090;&#1072;&#1088;&#1080;&#1077;&#1074;</text><rect fill="#F1F1F1" height="33.9688" rx="12.5" ry="12.5" style="stroke:#181818;stroke-width:0.5;" width="298" x="75.75" y="103.9688"/><text fill="#000000" font-family="sans-serif" font-size="12" lengthAdjust="spacing" textLength="278" x="85.75" y="125.1074">&#1040;&#1074;&#1090;&#1086;&#1084;&#1072;&#1090;&#1080;&#1095;&#1077;&#1089;&#1082;&#1072;&#1103; &#1082;&#1083;&#1072;&#1089;&#1089;&#1080;&#1092;&#1080;&#1082;&#1072;&#1094;&#1080;&#1103; (&#1084;&#1086;&#1076;&#1077;&#1083;&#1100;)</text><polygon fill="#F1F1F1" points="197.25,157.9375,252.25,157.9375,264.25,169.9375,252.25,181.9375,197.25,181.9375,185.25,169.9375,197.25,157.9375" style="stroke:#181818;stroke-width:0.5;"/><text fill="#000000" font-family="sans-serif" font-size="11" lengthAdjust="spacing" textLength="55" x="197.25" y="173.7456">&#1053;&#1077;&#1075;&#1072;&#1090;&#1080;&#1074;?</text><text fill="#000000" font-family="sans-serif" font-size="11" lengthAdjust="spacing" textLength="15" x="170.25" y="167.3433">&#1076;&#1072;</text><text fill="#000000" font-family="sans-serif" font-size="11" lengthAdjust="spacing" textLength="21" x="264.25" y="167.3433">&#1085;&#1077;&#1090;</text><rect fill="#F1F1F1" height="33.9688" rx="12.5" ry="12.5" style="stroke:#181818;stroke-width:0.5;" width="194" x="11" y="191.9375"/><text fill="#000000" font-family="sans-serif" font-size="12" lengthAdjust="spacing" textLength="174" x="21" y="213.0762">&#1054;&#1090;&#1087;&#1088;&#1072;&#1074;&#1080;&#1090;&#1100; &#1085;&#1072; &#1084;&#1086;&#1076;&#1077;&#1088;&#1072;&#1094;&#1080;&#1102;</text><rect fill="#F1F1F1" height="33.9688" rx="12.5" ry="12.5" style="stroke:#181818;stroke-width:0.5;" width="147" x="34.5" y="245.9063"/><text fill="#000000" font-family="sans-serif" font-size="12" lengthAdjust="spacing" textLength="127" x="44.5" y="267.0449">&#1055;&#1088;&#1080;&#1085;&#1103;&#1090;&#1080;&#1077; &#1088;&#1077;&#1096;&#1077;&#1085;&#1080;&#1103;</text><rect fill="#F1F1F1" height="33.9688" rx="12.5" ry="12.5" style="stroke:#181818;stroke-width:0.5;" width="233" x="225" y="191.9375"/><text fill="#000000" font-family="sans-serif" font-size="12" lengthAdjust="spacing" textLength="213" x="235" y="213.0762">&#1055;&#1091;&#1073;&#1083;&#1080;&#1082;&#1072;&#1094;&#1080;&#1103; &#1073;&#1077;&#1079; &#1074;&#1084;&#1077;&#1096;&#1072;&#1090;&#1077;&#1083;&#1100;&#1089;&#1090;&#1074;&#1072;</text><polygon fill="#F1F1F1" points="224.75,285.875,236.75,297.875,224.75,309.875,212.75,297.875,224.75,285.875" style="stroke:#181818;stroke-width:0.5;"/><ellipse cx="224.75" cy="340.875" fill="none" rx="11" ry="11" style="stroke:#222222;stroke-width:1.0;"/><ellipse cx="224.75" cy="340.875" fill="#222222" rx="6" ry="6" style="stroke:#111111;stroke-width:1.0;"/><line style="stroke:#181818;stroke-width:1.0;" x1="224.75" x2="224.75" y1="30" y2="50"/><polygon fill="#181818" points="220.75,40,224.75,50,228.75,40,224.75,44" style="stroke:#181818;stroke-width:1.0;"/><line style="stroke:#181818;stroke-width:1.0;" x1="224.75" x2="224.75" y1="83.9688" y2="103.9688"/><polygon fill="#181818" points="220.75,93.9688,224.75,103.9688,228.75,93.9688,224.75,97.9688" style="stroke:#181818;stroke-width:1.0;"/><line style="stroke:#181818;stroke-width:1.0;" x1="108" x2="108" y1="225.9063" y2="245.9063"/><polygon fill="#181818" points="104,235.9063,108,245.9063,112,235.9063,108,239.9063" style="stroke:#181818;stroke-width:1.0;"/><line style="stroke:#181818;stroke-width:1.0;" x1="185.25" x2="108" y1="169.9375" y2="169.9375"/><line style="stroke:#181818;stroke-width:1.0;" x1="108" x2="108" y1="169.9375" y2="191.9375"/><polygon fill="#181818" points="104,181.9375,108,191.9375,112,181.9375,108,185.9375" style="stroke:#181818;stroke-width:1.0;"/><line style="stroke:#181818;stroke-width:1.0;" x1="264.25" x2="341.5" y1="169.9375" y2="169.9375"/><line style="stroke:#181818;stroke-width:1.0;" x1="341.5" x2="341.5" y1="169.9375" y2="191.9375"/><polygon fill="#181818" points="337.5,181.9375,341.5,191.9375,345.5,181.9375,341.5,185.9375" style="stroke:#181818;stroke-width:1.0;"/><line style="stroke:#181818;stroke-width:1.0;" x1="108" x2="108" y1="279.875" y2="297.875"/><line style="stroke:#181818;stroke-width:1.0;" x1="108" x2="212.75" y1="297.875" y2="297.875"/><polygon fill="#181818" points="202.75,293.875,212.75,297.875,202.75,301.875,206.75,297.875" style="stroke:#181818;stroke-width:1.0;"/><line style="stroke:#181818;stroke-width:1.0;" x1="341.5" x2="341.5" y1="225.9063" y2="297.875"/><line style="stroke:#181818;stroke-width:1.0;" x1="341.5" x2="236.75" y1="297.875" y2="297.875"/><polygon fill="#181818" points="246.75,293.875,236.75,297.875,246.75,301.875,242.75,297.875" style="stroke:#181818;stroke-width:1.0;"/><line style="stroke:#181818;stroke-width:1.0;" x1="224.75" x2="224.75" y1="137.9375" y2="157.9375"/><polygon fill="#181818" points="220.75,147.9375,224.75,157.9375,228.75,147.9375,224.75,151.9375" style="stroke:#181818;stroke-width:1.0;"/><line style="stroke:#181818;stroke-width:1.0;" x1="224.75" x2="224.75" y1="309.875" y2="329.875"/><polygon fill="#181818" points="220.75,319.875,224.75,329.875,228.75,319.875,224.75,323.875" style="stroke:#181818;stroke-width:1.0;"/><!--SRC=[JO_1hS8m44JlhcAFf0Loe9Ol4GGI0aHI00JqFmT4Q03IWd_08Y84MfZjYB412VbWxrlFx6oQ_SmpqqM9EnfTwHySMjHmWYlHZOT0SrXTU8mgvkyzAYBVjhnhhz8b1LOBhsluM1BKkgR6ur- -2-bGSCUPBerkezYC1aG7bgUN3wfU9DamcH2VOICZqiMHdGU7MrGqoNKh36ZbO-KxmNuNX-zboDbg4GoTi7IwUMsbHMoISPhGlYNDexTYXNzc_avAu70HZhm5kOyNKdEldDJIQD8V3KoQJMTF]--></g></svg>