<?xml version="1.0" encoding="us-ascii" standalone="no"?><svg xmlns="http://www.w3.org/2000/svg" xmlns:xlink="http://www.w3.org/1999/xlink" contentStyleType="text/css" height="507px" preserveAspectRatio="none" style="width:353px;height:507px;background:#FFFFFF;" version="1.1" viewBox="0 0 353 507" width="353px" zoomAndPan="magnify"><defs/><g><!--class Comment--><g id="elem_Comment"><rect codeLine="1" fill="#F1F1F1" height="113.1875" id="Comment" rx="2.5" ry="2.5" style="stroke:#181818;stroke-width:0.5;" width="175" x="89" y="181"/><ellipse cx="138.25" cy="197" fill="#ADD1B2" rx="11" ry="11" style="stroke:#181818;stroke-width:1.0;"/><path d="M142.3594,203 L134.6406,203 L134.6406,190.6094 L142.3594,190.6094 L142.3594,192.7656 L137.0938,192.7656 L137.0938,195.4375 L141.8594,195.4375 L141.8594,197.5938 L137.0938,197.5938 L137.0938,200.8438 L142.3594,200.8438 L142.3594,203 Z " fill="#000000"/><text fill="#000000" font-family="sans-serif" font-size="14" lengthAdjust="spacing" textLength="68" x="158.75" y="201.8467">Comment</text><line style="stroke:#181818;stroke-width:0.5;" x1="90" x2="263" y1="213" y2="213"/><ellipse cx="100" cy="226.6484" fill="#000000" rx="3" ry="3" style="stroke:#000000;stroke-width:1.0;"/><text fill="#000000" font-family="sans-serif" font-size="14" lengthAdjust="spacing" textLength="59" x="109" y="229.9951">id : UUID</text><ellipse cx="100" cy="242.9453" fill="#000000" rx="3" ry="3" style="stroke:#000000;stroke-width:1.0;"/><text fill="#000000" font-family="sans-serif" font-size="14" lengthAdjust="spacing" textLength="69" x="109" y="246.292">text : Text</text><ellipse cx="100" cy="259.2422" fill="#000000" rx="3" ry="3" style="stroke:#000000;stroke-width:1.0;"/><text fill="#000000" font-family="sans-serif" font-size="14" lengthAdjust="spacing" textLength="149" x="109" y="262.5889">timestamp : Datetime</text><ellipse cx="100" cy="275.5391" fill="#000000" rx="3" ry="3" style="stroke:#000000;stroke-width:1.0;"/><text fill="#000000" font-family="sans-serif" font-size="14" lengthAdjust="spacing" textLength="97" x="109" y="278.8857">user_id : UUID</text><line style="stroke:#181818;stroke-width:0.5;" x1="90" x2="263" y1="286.1875" y2="286.1875"/></g><!--class ClassificationResult--><g id="elem_ClassificationResult"><rect codeLine="8" fill="#F1F1F1" height="129.4844" id="ClassificationResult" rx="2.5" ry="2.5" style="stroke:#181818;stroke-width:0.5;" width="339" x="7" y="371"/><ellipse cx="105.75" cy="387" fill="#ADD1B2" rx="11" ry="11" style="stroke:#181818;stroke-width:1.0;"/><path d="M109.8594,393 L102.1406,393 L102.1406,380.6094 L109.8594,380.6094 L109.8594,382.7656 L104.5938,382.7656 L104.5938,385.4375 L109.3594,385.4375 L109.3594,387.5938 L104.5938,387.5938 L104.5938,390.8438 L109.8594,390.8438 L109.8594,393 Z " fill="#000000"/><text fill="#000000" font-family="sans-serif" font-size="14" lengthAdjust="spacing" textLength="133" x="126.25" y="391.8467">ClassificationResult</text><line style="stroke:#181818;stroke-width:0.5;" x1="8" x2="345" y1="403" y2="403"/><ellipse cx="18" cy="416.6484" fill="#000000" rx="3" ry="3" style="stroke:#000000;stroke-width:1.0;"/><text fill="#000000" font-family="sans-serif" font-size="14" lengthAdjust="spacing" textLength="59" x="27" y="419.9951">id : UUID</text><ellipse cx="18" cy="432.9453" fill="#000000" rx="3" ry="3" style="stroke:#000000;stroke-width:1.0;"/><text fill="#000000" font-family="sans-serif" font-size="14" lengthAdjust="spacing" textLength="132" x="27" y="436.292">comment_id : UUID</text><ellipse cx="18" cy="449.2422" fill="#000000" rx="3" ry="3" style="stroke:#000000;stroke-width:1.0;"/><text fill="#000000" font-family="sans-serif" font-size="14" lengthAdjust="spacing" textLength="163" x="27" y="452.5889">is_dangerous : Boolean</text><ellipse cx="18" cy="465.5391" fill="#000000" rx="3" ry="3" style="stroke:#000000;stroke-width:1.0;"/><text fill="#000000" font-family="sans-serif" font-size="14" lengthAdjust="spacing" textLength="153" x="27" y="468.8857">model_version : String</text><line style="stroke:#181818;stroke-width:0.5;" x1="8" x2="345" y1="476.1875" y2="476.1875"/><ellipse cx="18" cy="489.8359" fill="#000000" rx="3" ry="3" style="stroke:#000000;stroke-width:1.0;"/><text fill="#000000" font-family="sans-serif" font-size="14" lengthAdjust="spacing" textLength="313" x="27" y="493.1826">sentiment : Enum (positive, neutral, negative)</text></g><!--class User--><g id="elem_User"><rect codeLine="16" fill="#F1F1F1" height="96.8906" id="User" rx="2.5" ry="2.5" style="stroke:#181818;stroke-width:0.5;" width="186" x="83.5" y="7"/><ellipse cx="156.25" cy="23" fill="#ADD1B2" rx="11" ry="11" style="stroke:#181818;stroke-width:1.0;"/><path d="M160.3594,29 L152.6406,29 L152.6406,16.6094 L160.3594,16.6094 L160.3594,18.7656 L155.0938,18.7656 L155.0938,21.4375 L159.8594,21.4375 L159.8594,23.5938 L155.0938,23.5938 L155.0938,26.8438 L160.3594,26.8438 L160.3594,29 Z " fill="#000000"/><text fill="#000000" font-family="sans-serif" font-size="14" lengthAdjust="spacing" textLength="32" x="176.75" y="27.8467">User</text><line style="stroke:#181818;stroke-width:0.5;" x1="84.5" x2="268.5" y1="39" y2="39"/><ellipse cx="94.5" cy="52.6484" fill="#000000" rx="3" ry="3" style="stroke:#000000;stroke-width:1.0;"/><text fill="#000000" font-family="sans-serif" font-size="14" lengthAdjust="spacing" textLength="59" x="103.5" y="55.9951">id : UUID</text><ellipse cx="94.5" cy="68.9453" fill="#000000" rx="3" ry="3" style="stroke:#000000;stroke-width:1.0;"/><text fill="#000000" font-family="sans-serif" font-size="14" lengthAdjust="spacing" textLength="123" x="103.5" y="72.292">username : String</text><ellipse cx="94.5" cy="85.2422" fill="#000000" rx="3" ry="3" style="stroke:#000000;stroke-width:1.0;"/><text fill="#000000" font-family="sans-serif" font-size="14" lengthAdjust="spacing" textLength="160" x="103.5" y="88.5889">is_moderator : Boolean</text><line style="stroke:#181818;stroke-width:0.5;" x1="84.5" x2="268.5" y1="95.8906" y2="95.8906"/></g><!--link Comment to ClassificationResult--><g id="link_Comment_ClassificationResult"><path codeLine="22" d="M176.5,302.41 C176.5,321.68 176.5,342.95 176.5,362.7 " fill="none" id="Comment-ClassificationResult" style="stroke:#181818;stroke-width:1.0;"/><line style="stroke:#181818;stroke-width:1.0;" x1="172.5" x2="180.5" y1="298.14" y2="298.14"/><line style="stroke:#181818;stroke-width:1.0;" x1="172.5" x2="180.5" y1="301.14" y2="301.14"/><line style="stroke:#181818;stroke-width:1.0;" x1="176.5" x2="176.5" y1="302.14" y2="294.14"/><line style="stroke:#181818;stroke-width:1.0;" x1="176.5" x2="182.5" y1="362.77" y2="370.77"/><line style="stroke:#181818;stroke-width:1.0;" x1="176.5" x2="170.5" y1="362.77" y2="370.77"/><line style="stroke:#181818;stroke-width:1.0;" x1="176.5" x2="176.5" y1="362.77" y2="370.77"/><ellipse cx="176.5" cy="356.77" fill="none" rx="4" ry="4" style="stroke:#181818;stroke-width:1.0;"/><text fill="#000000" font-family="sans-serif" font-size="13" lengthAdjust="spacing" textLength="80" x="177.5" y="337.0669">classified_by</text></g><!--link User to Comment--><g id="link_User_Comment"><path codeLine="23" d="M176.5,112.44 C176.5,131.58 176.5,153.12 176.5,172.82 " fill="none" id="User-Comment" style="stroke:#181818;stroke-width:1.0;"/><line style="stroke:#181818;stroke-width:1.0;" x1="172.5" x2="180.5" y1="108.26" y2="108.26"/><line style="stroke:#181818;stroke-width:1.0;" x1="172.5" x2="180.5" y1="111.26" y2="111.26"/><line style="stroke:#181818;stroke-width:1.0;" x1="176.5" x2="176.5" y1="112.26" y2="104.26"/><line style="stroke:#181818;stroke-width:1.0;" x1="176.5" x2="182.5" y1="172.85" y2="180.85"/><line style="stroke:#181818;stroke-width:1.0;" x1="176.5" x2="170.5" y1="172.85" y2="180.85"/><line style="stroke:#181818;stroke-width:1.0;" x1="176.5" x2="176.5" y1="172.85" y2="180.85"/><ellipse cx="176.5" cy="166.85" fill="none" rx="4" ry="4" style="stroke:#181818;stroke-width:1.0;"/><text fill="#000000" font-family="sans-serif" font-size="13" lengthAdjust="spacing" textLength="37" x="177.5" y="147.0669">writes</text></g><!--SRC=[RL1DRy8m3BttL_Yu8VW3FG8xxChMS-IrNcKf7oXs60ZstvUaHJ2ff-GzwttOv9Nr0hlW77c5QmEm0XwWXQvxtrUaTDQCF_CpONOaYkwOoJqg5Lm7IIYQX_QtQMXsjoZ2tzoZSl07acINe_gfXldFIh6fzLfuyyd1op48Avze3PwIHhJbCsAXNYTRCGFwaM98abNR42oXhoCN1hBcH55obppxqCX-V6hRvJKMsvNzF3fwYEQeOXbHGtoAodxtezvkcqsuBb-XXNwcQJ1VbwQ6tmMpleMVo4ho1m00]--></g></svg>