<?xml version="1.0" encoding="us-ascii" standalone="no"?><svg xmlns="http://www.w3.org/2000/svg" xmlns:xlink="http://www.w3.org/1999/xlink" contentStyleType="text/css" height="458px" preserveAspectRatio="none" style="width:868px;height:458px;background:#FFFFFF;" version="1.1" viewBox="0 0 868 458" width="868px" zoomAndPan="magnify"><defs/><g><!--cluster Web App--><g id="cluster_Web App"><path d="M119.5,6 L191.5,6 A3.75,3.75 0 0 1 194,8.5 L201,28.2969 L435.5,28.2969 A2.5,2.5 0 0 1 438,30.7969 L438,100.5 A2.5,2.5 0 0 1 435.5,103 L119.5,103 A2.5,2.5 0 0 1 117,100.5 L117,8.5 A2.5,2.5 0 0 1 119.5,6 " fill="none" style="stroke:#000000;stroke-width:1.5;"/><line style="stroke:#000000;stroke-width:1.5;" x1="117" x2="201" y1="28.2969" y2="28.2969"/><text fill="#000000" font-family="sans-serif" font-size="14" font-weight="bold" lengthAdjust="spacing" textLength="71" x="121" y="20.9951">Web App</text></g><!--cluster API Layer--><g id="cluster_API Layer"><path d="M212.5,127 L287.5,127 A3.75,3.75 0 0 1 290,129.5 L297,149.2969 L341.5,149.2969 A2.5,2.5 0 0 1 344,151.7969 L344,221.5 A2.5,2.5 0 0 1 341.5,224 L212.5,224 A2.5,2.5 0 0 1 210,221.5 L210,129.5 A2.5,2.5 0 0 1 212.5,127 " fill="none" style="stroke:#000000;stroke-width:1.5;"/><line style="stroke:#000000;stroke-width:1.5;" x1="210" x2="297" y1="149.2969" y2="149.2969"/><text fill="#000000" font-family="sans-serif" font-size="14" font-weight="bold" lengthAdjust="spacing" textLength="74" x="214" y="141.9951">API Layer</text></g><!--cluster ML Core--><g id="cluster_ML Core"><path d="M8.5,248 L74.5,248 A3.75,3.75 0 0 1 77,250.5 L84,270.2969 L369.5,270.2969 A2.5,2.5 0 0 1 372,272.7969 L372,448.5 A2.5,2.5 0 0 1 369.5,451 L8.5,451 A2.5,2.5 0 0 1 6,448.5 L6,250.5 A2.5,2.5 0 0 1 8.5,248 " fill="none" style="stroke:#000000;stroke-width:1.5;"/><line style="stroke:#000000;stroke-width:1.5;" x1="6" x2="84" y1="270.2969" y2="270.2969"/><text fill="#000000" font-family="sans-serif" font-size="14" font-weight="bold" lengthAdjust="spacing" textLength="65" x="10" y="262.9951">ML Core</text></g><!--cluster Storage--><g id="cluster_Storage"><path d="M398.5,354 L461.5,354 A3.75,3.75 0 0 1 464,356.5 L471,376.2969 L858.5,376.2969 A2.5,2.5 0 0 1 861,378.7969 L861,448.5 A2.5,2.5 0 0 1 858.5,451 L398.5,451 A2.5,2.5 0 0 1 396,448.5 L396,356.5 A2.5,2.5 0 0 1 398.5,354 " fill="none" style="stroke:#000000;stroke-width:1.5;"/><line style="stroke:#000000;stroke-width:1.5;" x1="396" x2="471" y1="376.2969" y2="376.2969"/><text fill="#000000" font-family="sans-serif" font-size="14" font-weight="bold" lengthAdjust="spacing" textLength="62" x="400" y="368.9951">Storage</text></g><!--entity Moderator UI--><g id="elem_Moderator UI"><rect fill="#F1F1F1" height="46.2969" rx="2.5" ry="2.5" style="stroke:#181818;stroke-width:0.5;" width="128" x="294" y="41"/><rect fill="#F1F1F1" height="10" style="stroke:#181818;stroke-width:0.5;" width="15" x="402" y="46"/><rect fill="#F1F1F1" height="2" style="stroke:#181818;stroke-width:0.5;" width="4" x="400" y="48"/><rect fill="#F1F1F1" height="2" style="stroke:#181818;stroke-width:0.5;" width="4" x="400" y="52"/><text fill="#000000" font-family="sans-serif" font-size="14" lengthAdjust="spacing" textLength="88" x="309" y="73.9951">Moderator UI</text></g><!--entity Admin Panel--><g id="elem_Admin Panel"><rect fill="#F1F1F1" height="46.2969" rx="2.5" ry="2.5" style="stroke:#181818;stroke-width:0.5;" width="125" x="133.5" y="41"/><rect fill="#F1F1F1" height="10" style="stroke:#181818;stroke-width:0.5;" width="15" x="238.5" y="46"/><rect fill="#F1F1F1" height="2" style="stroke:#181818;stroke-width:0.5;" width="4" x="236.5" y="48"/><rect fill="#F1F1F1" height="2" style="stroke:#181818;stroke-width:0.5;" width="4" x="236.5" y="52"/><text fill="#000000" font-family="sans-serif" font-size="14" lengthAdjust="spacing" textLength="85" x="148.5" y="73.9951">Admin Panel</text></g><!--entity REST API--><g id="elem_REST API"><rect fill="#F1F1F1" height="46.2969" rx="2.5" ry="2.5" style="stroke:#181818;stroke-width:0.5;" width="102" x="226" y="162"/><rect fill="#F1F1F1" height="10" style="stroke:#181818;stroke-width:0.5;" width="15" x="308" y="167"/><rect fill="#F1F1F1" height="2" style="stroke:#181818;stroke-width:0.5;" width="4" x="306" y="169"/><rect fill="#F1F1F1" height="2" style="stroke:#181818;stroke-width:0.5;" width="4" x="306" y="173"/><text fill="#000000" font-family="sans-serif" font-size="14" lengthAdjust="spacing" textLength="62" x="241" y="194.9951">REST API</text></g><!--entity Inference Service--><g id="elem_Inference Service"><rect fill="#F1F1F1" height="46.2969" rx="2.5" ry="2.5" style="stroke:#181818;stroke-width:0.5;" width="159" x="197.5" y="283"/><rect fill="#F1F1F1" height="10" style="stroke:#181818;stroke-width:0.5;" width="15" x="336.5" y="288"/><rect fill="#F1F1F1" height="2" style="stroke:#181818;stroke-width:0.5;" width="4" x="334.5" y="290"/><rect fill="#F1F1F1" height="2" style="stroke:#181818;stroke-width:0.5;" width="4" x="334.5" y="294"/><text fill="#000000" font-family="sans-serif" font-size="14" lengthAdjust="spacing" textLength="119" x="212.5" y="315.9951">Inference Service</text></g><!--entity Preprocessing--><g id="elem_Preprocessing"><rect fill="#F1F1F1" height="46.2969" rx="2.5" ry="2.5" style="stroke:#181818;stroke-width:0.5;" width="140" x="22" y="283"/><rect fill="#F1F1F1" height="10" style="stroke:#181818;stroke-width:0.5;" width="15" x="142" y="288"/><rect fill="#F1F1F1" height="2" style="stroke:#181818;stroke-width:0.5;" width="4" x="140" y="290"/><rect fill="#F1F1F1" height="2" style="stroke:#181818;stroke-width:0.5;" width="4" x="140" y="294"/><text fill="#000000" font-family="sans-serif" font-size="14" lengthAdjust="spacing" textLength="100" x="37" y="315.9951">Preprocessing</text></g><!--entity BERT Model--><g id="elem_BERT Model"><rect fill="#F1F1F1" height="46.2969" rx="2.5" ry="2.5" style="stroke:#181818;stroke-width:0.5;" width="124" x="215" y="389"/><rect fill="#F1F1F1" height="10" style="stroke:#181818;stroke-width:0.5;" width="15" x="319" y="394"/><rect fill="#F1F1F1" height="2" style="stroke:#181818;stroke-width:0.5;" width="4" x="317" y="396"/><rect fill="#F1F1F1" height="2" style="stroke:#181818;stroke-width:0.5;" width="4" x="317" y="400"/><text fill="#000000" font-family="sans-serif" font-size="14" lengthAdjust="spacing" textLength="84" x="230" y="421.9951">BERT Model</text></g><!--entity PostgreSQL--><g id="elem_PostgreSQL"><rect fill="#F1F1F1" height="46.2969" rx="2.5" ry="2.5" style="stroke:#181818;stroke-width:0.5;" width="121" x="723.5" y="389"/><rect fill="#F1F1F1" height="10" style="stroke:#181818;stroke-width:0.5;" width="15" x="824.5" y="394"/><rect fill="#F1F1F1" height="2" style="stroke:#181818;stroke-width:0.5;" width="4" x="822.5" y="396"/><rect fill="#F1F1F1" height="2" style="stroke:#181818;stroke-width:0.5;" width="4" x="822.5" y="400"/><text fill="#000000" font-family="sans-serif" font-size="14" lengthAdjust="spacing" textLength="81" x="738.5" y="421.9951">PostgreSQL</text></g><!--entity Object Storage--><g id="elem_Object Storage"><rect fill="#F1F1F1" height="46.2969" rx="2.5" ry="2.5" style="stroke:#181818;stroke-width:0.5;" width="143" x="545.5" y="389"/><rect fill="#F1F1F1" height="10" style="stroke:#181818;stroke-width:0.5;" width="15" x="668.5" y="394"/><rect fill="#F1F1F1" height="2" style="stroke:#181818;stroke-width:0.5;" width="4" x="666.5" y="396"/><rect fill="#F1F1F1" height="2" style="stroke:#181818;stroke-width:0.5;" width="4" x="666.5" y="400"/><text fill="#000000" font-family="sans-serif" font-size="14" lengthAdjust="spacing" textLength="103" x="560.5" y="421.9951">Object Storage</text></g><!--entity Logs DB--><g id="elem_Logs DB"><rect fill="#F1F1F1" height="46.2969" rx="2.5" ry="2.5" style="stroke:#181818;stroke-width:0.5;" width="98" x="412" y="389"/><rect fill="#F1F1F1" height="10" style="stroke:#181818;stroke-width:0.5;" width="15" x="490" y="394"/><rect fill="#F1F1F1" height="2" style="stroke:#181818;stroke-width:0.5;" width="4" x="488" y="396"/><rect fill="#F1F1F1" height="2" style="stroke:#181818;stroke-width:0.5;" width="4" x="488" y="400"/><text fill="#000000" font-family="sans-serif" font-size="14" lengthAdjust="spacing" textLength="58" x="427" y="421.9951">Logs DB</text></g><!--link Moderator UI to REST API--><g id="link_Moderator UI_REST API"><path d="M342.95,87.1 C329.46,106.93 309.62,136.08 295.22,157.23 " fill="none" id="Moderator UI-to-REST API" style="stroke:#181818;stroke-width:1.0;"/><polygon fill="#181818" points="292.24,161.61,300.6144,156.4264,295.0562,157.4786,294.0041,151.9204,292.24,161.61" style="stroke:#181818;stroke-width:1.0;"/></g><!--link Admin Panel to REST API--><g id="link_Admin Panel_REST API"><path d="M211.05,87.1 C224.54,106.93 244.38,136.08 258.78,157.23 " fill="none" id="Admin Panel-to-REST API" style="stroke:#181818;stroke-width:1.0;"/><polygon fill="#181818" points="261.76,161.61,259.9959,151.9204,258.9438,157.4786,253.3856,156.4264,261.76,161.61" style="stroke:#181818;stroke-width:1.0;"/></g><!--link REST API to Inference Service--><g id="link_REST API_Inference Service"><path d="M277,208.1 C277,227.68 277,256.35 277,277.43 " fill="none" id="REST API-to-Inference Service" style="stroke:#181818;stroke-width:1.0;"/><polygon fill="#181818" points="277,282.61,281,273.61,277,277.61,273,273.61,277,282.61" style="stroke:#181818;stroke-width:1.0;"/></g><!--link Inference Service to BERT Model--><g id="link_Inference Service_BERT Model"><path d="M277,329.06 C277,345.05 277,366.78 277,383.84 " fill="none" id="Inference Service-to-BERT Model" style="stroke:#181818;stroke-width:1.0;"/><polygon fill="#181818" points="277,388.98,281,379.98,277,383.98,273,379.98,277,388.98" style="stroke:#181818;stroke-width:1.0;"/></g><!--link Inference Service to PostgreSQL--><g id="link_Inference Service_PostgreSQL"><path d="M356.88,308.61 C463.18,311.72 644.85,320.67 706,346 C727.02,354.71 746.67,371.15 760.99,385.33 " fill="none" id="Inference Service-to-PostgreSQL" style="stroke:#181818;stroke-width:1.0;"/><polygon fill="#181818" points="764.51,388.87,760.993,379.6705,760.9816,385.3273,755.3248,385.3159,764.51,388.87" style="stroke:#181818;stroke-width:1.0;"/></g><!--link Inference Service to Logs DB--><g id="link_Inference Service_Logs DB"><path d="M337.08,329.09 C348.9,334.15 361.03,339.86 372,346 C392.32,357.37 413.43,372.62 429.99,385.49 " fill="none" id="Inference Service-to-Logs DB" style="stroke:#181818;stroke-width:1.0;"/><polygon fill="#181818" points="434.1,388.7,429.4777,380.0032,430.1625,385.6185,424.5472,386.3032,434.1,388.7" style="stroke:#181818;stroke-width:1.0;"/></g><!--SRC=[TOzF2u904CNlVeh1kryXqF8WA9aQ7SB3kavYVtQNKOA8ldkwhg5bj-7DUpFlfnY_i0h1Fc01hb8sF2s0OoHB9DPAWdsGzu9Rtce1CHDupQsNPQanvyO1XEo1P9A9dsRGYNDN5C9Q4XfF84v8A3X2YdIlEUeNCQ4YoR5fQb5fnVEJ3FegNp_JhbWtc6knRDgACDs5EhGjpiXRC1ujXR9gOEFf8tCqS9pLjFECysVv6OVD0iQ2DdYdA7zDKvA_fX7c3G00]--></g></svg>