<?xml version="1.0" encoding="us-ascii" standalone="no"?><svg xmlns="http://www.w3.org/2000/svg" xmlns:xlink="http://www.w3.org/1999/xlink" contentStyleType="text/css" height="269px" preserveAspectRatio="none" style="width:925px;height:269px;background:#FFFFFF;" version="1.1" viewBox="0 0 925 269" width="925px" zoomAndPan="magnify"><defs/><g><!--cluster VK Cloud--><g id="cluster_VK Cloud"><polygon fill="none" points="16,16,26,6,908,6,908,242,898,252,16,252,16,16" style="stroke:#181818;stroke-width:1.0;"/><line style="stroke:#181818;stroke-width:1.0;" x1="898" x2="908" y1="16" y2="6"/><line style="stroke:#181818;stroke-width:1.0;" x1="16" x2="898" y1="16" y2="16"/><line style="stroke:#181818;stroke-width:1.0;" x1="898" x2="898" y1="16" y2="252"/><text fill="#000000" font-family="sans-serif" font-size="14" font-weight="bold" lengthAdjust="spacing" textLength="72" x="422" y="31.9951">VK Cloud</text></g><!--cluster Kubernetes Cluster--><g id="cluster_Kubernetes Cluster"><polygon fill="none" points="40,64,50,54,884,54,884,218,874,228,40,228,40,64" style="stroke:#181818;stroke-width:1.0;"/><line style="stroke:#181818;stroke-width:1.0;" x1="874" x2="884" y1="64" y2="54"/><line style="stroke:#181818;stroke-width:1.0;" x1="40" x2="874" y1="64" y2="64"/><line style="stroke:#181818;stroke-width:1.0;" x1="874" x2="874" y1="64" y2="228"/><text fill="#000000" font-family="sans-serif" font-size="14" font-weight="bold" lengthAdjust="spacing" textLength="155" x="380.5" y="79.9951">Kubernetes Cluster</text></g><!--cluster Web Pod--><g id="cluster_Web Pod"><polygon fill="none" points="714,112,724,102,860,102,860,194,850,204,714,204,714,112" style="stroke:#181818;stroke-width:1.0;"/><line style="stroke:#181818;stroke-width:1.0;" x1="850" x2="860" y1="112" y2="102"/><line style="stroke:#181818;stroke-width:1.0;" x1="714" x2="850" y1="112" y2="112"/><line style="stroke:#181818;stroke-width:1.0;" x1="850" x2="850" y1="112" y2="204"/><text fill="#000000" font-family="sans-serif" font-size="14" font-weight="bold" lengthAdjust="spacing" textLength="70" x="748" y="127.9951">Web Pod</text></g><!--cluster API Pod--><g id="cluster_API Pod"><polygon fill="none" points="554,112,564,102,690,102,690,194,680,204,554,204,554,112" style="stroke:#181818;stroke-width:1.0;"/><line style="stroke:#181818;stroke-width:1.0;" x1="680" x2="690" y1="112" y2="102"/><line style="stroke:#181818;stroke-width:1.0;" x1="554" x2="680" y1="112" y2="112"/><line style="stroke:#181818;stroke-width:1.0;" x1="680" x2="680" y1="112" y2="204"/><text fill="#000000" font-family="sans-serif" font-size="14" font-weight="bold" lengthAdjust="spacing" textLength="60" x="588" y="127.9951">API Pod</text></g><!--cluster ML Pod (GPU)--><g id="cluster_ML Pod (GPU)"><polygon fill="none" points="334,112,344,102,530,102,530,194,520,204,334,204,334,112" style="stroke:#181818;stroke-width:1.0;"/><line style="stroke:#181818;stroke-width:1.0;" x1="520" x2="530" y1="112" y2="102"/><line style="stroke:#181818;stroke-width:1.0;" x1="334" x2="520" y1="112" y2="112"/><line style="stroke:#181818;stroke-width:1.0;" x1="520" x2="520" y1="112" y2="204"/><text fill="#000000" font-family="sans-serif" font-size="14" font-weight="bold" lengthAdjust="spacing" textLength="107" x="374.5" y="127.9951">ML Pod (GPU)</text></g><!--entity PostgreSQL--><g id="elem_PostgreSQL"><path d="M214.5,152.5 C214.5,142.5 265,142.5 265,142.5 C265,142.5 315.5,142.5 315.5,152.5 L315.5,177.7969 C315.5,187.7969 265,187.7969 265,187.7969 C265,187.7969 214.5,187.7969 214.5,177.7969 L214.5,152.5 " fill="#F1F1F1" style="stroke:#181818;stroke-width:0.5;"/><path d="M214.5,152.5 C214.5,162.5 265,162.5 265,162.5 C265,162.5 315.5,162.5 315.5,152.5 " fill="none" style="stroke:#181818;stroke-width:0.5;"/><text fill="#000000" font-family="sans-serif" font-size="14" lengthAdjust="spacing" textLength="81" x="224.5" y="179.4951">PostgreSQL</text></g><!--entity Object Storage--><g id="elem_Object Storage"><path d="M56.5,152.5 C56.5,142.5 118,142.5 118,142.5 C118,142.5 179.5,142.5 179.5,152.5 L179.5,177.7969 C179.5,187.7969 118,187.7969 118,187.7969 C118,187.7969 56.5,187.7969 56.5,177.7969 L56.5,152.5 " fill="#F1F1F1" style="stroke:#181818;stroke-width:0.5;"/><path d="M56.5,152.5 C56.5,162.5 118,162.5 118,162.5 C118,162.5 179.5,162.5 179.5,152.5 " fill="none" style="stroke:#181818;stroke-width:0.5;"/><text fill="#000000" font-family="sans-serif" font-size="14" lengthAdjust="spacing" textLength="103" x="66.5" y="179.4951">Object Storage</text></g><!--entity Frontend--><g id="elem_Frontend"><rect fill="#F1F1F1" height="46.2969" rx="2.5" ry="2.5" style="stroke:#181818;stroke-width:0.5;" width="103" x="735.5" y="142"/><rect fill="#F1F1F1" height="10" style="stroke:#181818;stroke-width:0.5;" width="15" x="818.5" y="147"/><rect fill="#F1F1F1" height="2" style="stroke:#181818;stroke-width:0.5;" width="4" x="816.5" y="149"/><rect fill="#F1F1F1" height="2" style="stroke:#181818;stroke-width:0.5;" width="4" x="816.5" y="153"/><text fill="#000000" font-family="sans-serif" font-size="14" lengthAdjust="spacing" textLength="63" x="750.5" y="174.9951">Frontend</text></g><!--entity REST API--><g id="elem_REST API"><rect fill="#F1F1F1" height="46.2969" rx="2.5" ry="2.5" style="stroke:#181818;stroke-width:0.5;" width="102" x="571" y="142"/><rect fill="#F1F1F1" height="10" style="stroke:#181818;stroke-width:0.5;" width="15" x="653" y="147"/><rect fill="#F1F1F1" height="2" style="stroke:#181818;stroke-width:0.5;" width="4" x="651" y="149"/><rect fill="#F1F1F1" height="2" style="stroke:#181818;stroke-width:0.5;" width="4" x="651" y="153"/><text fill="#000000" font-family="sans-serif" font-size="14" lengthAdjust="spacing" textLength="62" x="586" y="174.9951">REST API</text></g><!--entity Inference + BERT--><g id="elem_Inference + BERT"><rect fill="#F1F1F1" height="46.2969" rx="2.5" ry="2.5" style="stroke:#181818;stroke-width:0.5;" width="163" x="350.5" y="142"/><rect fill="#F1F1F1" height="10" style="stroke:#181818;stroke-width:0.5;" width="15" x="493.5" y="147"/><rect fill="#F1F1F1" height="2" style="stroke:#181818;stroke-width:0.5;" width="4" x="491.5" y="149"/><rect fill="#F1F1F1" height="2" style="stroke:#181818;stroke-width:0.5;" width="4" x="491.5" y="153"/><text fill="#000000" font-family="sans-serif" font-size="14" lengthAdjust="spacing" textLength="123" x="365.5" y="174.9951">Inference + BERT</text></g><!--SRC=[TSp12e904CRnkqynxAdeAIeiHADDhSwxxYH4pSJkU0hVFJM42hlER_uViKDGfnJMDswSWcS4GCCjRInwGi7GMHC4_Lj7FwC5pMuy0bHyVp0X2QYDPn8afmPgeuzigPE_MHuN9NGF4zakwokORVLnFjacT46FL24iO1NdvTU6CsAi2TsEvY2rn-AGgH_PsojM0eMmDpNssaRj2m00]--></g></svg>