<?xml version="1.0" encoding="us-ascii" standalone="no"?><svg xmlns="http://www.w3.org/2000/svg" xmlns:xlink="http://www.w3.org/1999/xlink" contentStyleType="text/css" height="377px" preserveAspectRatio="none" style="width:303px;height:377px;background:#FFFFFF;" version="1.1" viewBox="0 0 303 377" width="303px" zoomAndPan="magnify"><defs/><g><!--entity Frontend--><g id="elem_Frontend"><rect fill="#F1F1F1" height="46.2969" rx="2.5" ry="2.5" style="stroke:#181818;stroke-width:0.5;" width="103" x="80.5" y="7"/><rect fill="#F1F1F1" height="10" style="stroke:#181818;stroke-width:0.5;" width="15" x="163.5" y="12"/><rect fill="#F1F1F1" height="2" style="stroke:#181818;stroke-width:0.5;" width="4" x="161.5" y="14"/><rect fill="#F1F1F1" height="2" style="stroke:#181818;stroke-width:0.5;" width="4" x="161.5" y="18"/><text fill="#000000" font-family="sans-serif" font-size="14" lengthAdjust="spacing" textLength="63" x="95.5" y="39.9951">Frontend</text></g><!--entity API Gateway--><g id="elem_API Gateway"><rect fill="#F1F1F1" height="46.2969" rx="2.5" ry="2.5" style="stroke:#181818;stroke-width:0.5;" width="124" x="70" y="113"/><rect fill="#F1F1F1" height="10" style="stroke:#181818;stroke-width:0.5;" width="15" x="174" y="118"/><rect fill="#F1F1F1" height="2" style="stroke:#181818;stroke-width:0.5;" width="4" x="172" y="120"/><rect fill="#F1F1F1" height="2" style="stroke:#181818;stroke-width:0.5;" width="4" x="172" y="124"/><text fill="#000000" font-family="sans-serif" font-size="14" lengthAdjust="spacing" textLength="84" x="85" y="145.9951">API Gateway</text></g><!--entity ML Inference Service--><g id="elem_ML Inference Service"><rect fill="#F1F1F1" height="46.2969" rx="2.5" ry="2.5" style="stroke:#181818;stroke-width:0.5;" width="182" x="113" y="219"/><rect fill="#F1F1F1" height="10" style="stroke:#181818;stroke-width:0.5;" width="15" x="275" y="224"/><rect fill="#F1F1F1" height="2" style="stroke:#181818;stroke-width:0.5;" width="4" x="273" y="226"/><rect fill="#F1F1F1" height="2" style="stroke:#181818;stroke-width:0.5;" width="4" x="273" y="230"/><text fill="#000000" font-family="sans-serif" font-size="14" lengthAdjust="spacing" textLength="142" x="128" y="251.9951">ML Inference Service</text></g><!--entity Database--><g id="elem_Database"><rect fill="#F1F1F1" height="46.2969" rx="2.5" ry="2.5" style="stroke:#181818;stroke-width:0.5;" width="106" x="7" y="325"/><rect fill="#F1F1F1" height="10" style="stroke:#181818;stroke-width:0.5;" width="15" x="93" y="330"/><rect fill="#F1F1F1" height="2" style="stroke:#181818;stroke-width:0.5;" width="4" x="91" y="332"/><rect fill="#F1F1F1" height="2" style="stroke:#181818;stroke-width:0.5;" width="4" x="91" y="336"/><text fill="#000000" font-family="sans-serif" font-size="14" lengthAdjust="spacing" textLength="66" x="22" y="357.9951">Database</text></g><!--entity Logging Service--><g id="elem_Logging Service"><rect fill="#F1F1F1" height="46.2969" rx="2.5" ry="2.5" style="stroke:#181818;stroke-width:0.5;" width="149" x="148.5" y="325"/><rect fill="#F1F1F1" height="10" style="stroke:#181818;stroke-width:0.5;" width="15" x="277.5" y="330"/><rect fill="#F1F1F1" height="2" style="stroke:#181818;stroke-width:0.5;" width="4" x="275.5" y="332"/><rect fill="#F1F1F1" height="2" style="stroke:#181818;stroke-width:0.5;" width="4" x="275.5" y="336"/><text fill="#000000" font-family="sans-serif" font-size="14" lengthAdjust="spacing" textLength="109" x="163.5" y="357.9951">Logging Service</text></g><!--link Frontend to API Gateway--><g id="link_Frontend_API Gateway"><path d="M132,53.06 C132,69.05 132,90.78 132,107.84 " fill="none" id="Frontend-to-API Gateway" style="stroke:#181818;stroke-width:1.0;"/><polygon fill="#181818" points="132,112.98,136,103.98,132,107.98,128,103.98,132,112.98" style="stroke:#181818;stroke-width:1.0;"/></g><!--link API Gateway to ML Inference Service--><g id="link_API Gateway_ML Inference Service"><path d="M147.27,159.06 C158.53,175.33 173.9,197.53 185.81,214.72 " fill="none" id="API Gateway-to-ML Inference Service" style="stroke:#181818;stroke-width:1.0;"/><polygon fill="#181818" points="188.75,218.98,186.9246,209.3018,185.9077,214.8665,180.343,213.8495,188.75,218.98" style="stroke:#181818;stroke-width:1.0;"/></g><!--link API Gateway to Database--><g id="link_API Gateway_Database"><path d="M120.82,159.23 C112.92,175.51 102.46,198.28 95,219 C82.72,253.14 72.3,293.72 66.1,319.9 " fill="none" id="API Gateway-to-Database" style="stroke:#181818;stroke-width:1.0;"/><polygon fill="#181818" points="64.92,324.93,70.8699,317.0815,66.062,320.0622,63.0814,315.2543,64.92,324.93" style="stroke:#181818;stroke-width:1.0;"/></g><!--link ML Inference Service to Database--><g id="link_ML Inference Service_Database"><path d="M173.46,265.06 C150.36,281.74 118.62,304.66 94.59,322.02 " fill="none" id="ML Inference Service-to-Database" style="stroke:#181818;stroke-width:1.0;"/><polygon fill="#181818" points="90.49,324.98,100.1286,322.9558,94.5441,322.0536,95.4463,316.4691,90.49,324.98" style="stroke:#181818;stroke-width:1.0;"/></g><!--link ML Inference Service to Logging Service--><g id="link_ML Inference Service_Logging Service"><path d="M208.03,265.06 C210.95,281.05 214.92,302.78 218.04,319.84 " fill="none" id="ML Inference Service-to-Logging Service" style="stroke:#181818;stroke-width:1.0;"/><polygon fill="#181818" points="218.98,324.98,221.2933,315.4067,218.0793,320.0618,213.4241,316.8478,218.98,324.98" style="stroke:#181818;stroke-width:1.0;"/></g><!--SRC=[IyxFBSZFIyqhKL1oAyhFAqdDIr5Iu4f6Y3e6U2gu9vQabYTMAY6B-_eeUEQbfHQbvYMdAWId5fLb9gUYA719B4bCIYn65VJ9Jq_Fp4j7QE12ibPNrmxDFXGUH1wxlLWK8kp7heSKLUZE1W00]--></g></svg>