<?xml version="1.0" encoding="us-ascii" standalone="no"?><svg xmlns="http://www.w3.org/2000/svg" xmlns:xlink="http://www.w3.org/1999/xlink" contentStyleType="text/css" height="283px" preserveAspectRatio="none" style="width:598px;height:283px;background:#FFFFFF;" version="1.1" viewBox="0 0 598 283" width="598px" zoomAndPan="magnify"><defs/><g><!--class Comment--><g id="elem_Comment"><rect codeLine="1" fill="#F1F1F1" height="113.1875" id="Comment" rx="2.5" ry="2.5" style="stroke:#181818;stroke-width:0.5;" width="175" x="12.5" y="7"/><ellipse cx="61.75" cy="23" fill="#ADD1B2" rx="11" ry="11" style="stroke:#181818;stroke-width:1.0;"/><path d="M64.7188,28.6406 Q64.1406,28.9375 63.5,29.0781 Q62.8594,29.2344 62.1563,29.2344 Q59.6563,29.2344 58.3281,27.5938 Q57.0156,25.9375 57.0156,22.8125 Q57.0156,19.6875 58.3281,18.0313 Q59.6563,16.375 62.1563,16.375 Q62.8594,16.375 63.5,16.5313 Q64.1563,16.6875 64.7188,16.9844 L64.7188,19.7031 Q64.0938,19.125 63.5,18.8594 Q62.9063,18.5781 62.2813,18.5781 Q60.9375,18.5781 60.25,19.6563 Q59.5625,20.7188 59.5625,22.8125 Q59.5625,24.9063 60.25,25.9844 Q60.9375,27.0469 62.2813,27.0469 Q62.9063,27.0469 63.5,26.7813 Q64.0938,26.5 64.7188,25.9219 L64.7188,28.6406 Z " fill="#000000"/><text fill="#000000" font-family="sans-serif" font-size="14" lengthAdjust="spacing" textLength="68" x="82.25" y="27.8467">Comment</text><line style="stroke:#181818;stroke-width:0.5;" x1="13.5" x2="186.5" y1="39" y2="39"/><ellipse cx="23.5" cy="52.6484" fill="none" rx="3" ry="3" style="stroke:#038048;stroke-width:1.0;"/><text fill="#000000" font-family="sans-serif" font-size="14" lengthAdjust="spacing" textLength="59" x="32.5" y="55.9951">id : UUID</text><ellipse cx="23.5" cy="68.9453" fill="none" rx="3" ry="3" style="stroke:#038048;stroke-width:1.0;"/><text fill="#000000" font-family="sans-serif" font-size="14" lengthAdjust="spacing" textLength="79" x="32.5" y="72.292">text : String</text><ellipse cx="23.5" cy="85.2422" fill="none" rx="3" ry="3" style="stroke:#038048;stroke-width:1.0;"/><text fill="#000000" font-family="sans-serif" font-size="14" lengthAdjust="spacing" textLength="149" x="32.5" y="88.5889">timestamp : Datetime</text><ellipse cx="23.5" cy="101.5391" fill="none" rx="3" ry="3" style="stroke:#038048;stroke-width:1.0;"/><text fill="#000000" font-family="sans-serif" font-size="14" lengthAdjust="spacing" textLength="76" x="32.5" y="104.8857">user : User</text><line style="stroke:#181818;stroke-width:0.5;" x1="13.5" x2="186.5" y1="112.1875" y2="112.1875"/></g><!--class User--><g id="elem_User"><rect codeLine="8" fill="#F1F1F1" height="96.8906" id="User" rx="2.5" ry="2.5" style="stroke:#181818;stroke-width:0.5;" width="186" x="7" y="180"/><ellipse cx="79.75" cy="196" fill="#ADD1B2" rx="11" ry="11" style="stroke:#181818;stroke-width:1.0;"/><path d="M82.7188,201.6406 Q82.1406,201.9375 81.5,202.0781 Q80.8594,202.2344 80.1563,202.2344 Q77.6563,202.2344 76.3281,200.5938 Q75.0156,198.9375 75.0156,195.8125 Q75.0156,192.6875 76.3281,191.0313 Q77.6563,189.375 80.1563,189.375 Q80.8594,189.375 81.5,189.5313 Q82.1563,189.6875 82.7188,189.9844 L82.7188,192.7031 Q82.0938,192.125 81.5,191.8594 Q80.9063,191.5781 80.2813,191.5781 Q78.9375,191.5781 78.25,192.6563 Q77.5625,193.7188 77.5625,195.8125 Q77.5625,197.9063 78.25,198.9844 Q78.9375,200.0469 80.2813,200.0469 Q80.9063,200.0469 81.5,199.7813 Q82.0938,199.5 82.7188,198.9219 L82.7188,201.6406 Z " fill="#000000"/><text fill="#000000" font-family="sans-serif" font-size="14" lengthAdjust="spacing" textLength="32" x="100.25" y="200.8467">User</text><line style="stroke:#181818;stroke-width:0.5;" x1="8" x2="192" y1="212" y2="212"/><ellipse cx="18" cy="225.6484" fill="none" rx="3" ry="3" style="stroke:#038048;stroke-width:1.0;"/><text fill="#000000" font-family="sans-serif" font-size="14" lengthAdjust="spacing" textLength="59" x="27" y="228.9951">id : UUID</text><ellipse cx="18" cy="241.9453" fill="none" rx="3" ry="3" style="stroke:#038048;stroke-width:1.0;"/><text fill="#000000" font-family="sans-serif" font-size="14" lengthAdjust="spacing" textLength="123" x="27" y="245.292">username : String</text><ellipse cx="18" cy="258.2422" fill="none" rx="3" ry="3" style="stroke:#038048;stroke-width:1.0;"/><text fill="#000000" font-family="sans-serif" font-size="14" lengthAdjust="spacing" textLength="160" x="27" y="261.5889">is_moderator : Boolean</text><line style="stroke:#181818;stroke-width:0.5;" x1="8" x2="192" y1="268.8906" y2="268.8906"/></g><!--class Classifier--><g id="elem_Classifier"><rect codeLine="14" fill="#F1F1F1" height="64.2969" id="Classifier" rx="2.5" ry="2.5" style="stroke:#181818;stroke-width:0.5;" width="369" x="222.5" y="31.5"/><ellipse cx="372.25" cy="47.5" fill="#ADD1B2" rx="11" ry="11" style="stroke:#181818;stroke-width:1.0;"/><path d="M375.2188,53.1406 Q374.6406,53.4375 374,53.5781 Q373.3594,53.7344 372.6563,53.7344 Q370.1563,53.7344 368.8281,52.0938 Q367.5156,50.4375 367.5156,47.3125 Q367.5156,44.1875 368.8281,42.5313 Q370.1563,40.875 372.6563,40.875 Q373.3594,40.875 374,41.0313 Q374.6563,41.1875 375.2188,41.4844 L375.2188,44.2031 Q374.5938,43.625 374,43.3594 Q373.4063,43.0781 372.7813,43.0781 Q371.4375,43.0781 370.75,44.1563 Q370.0625,45.2188 370.0625,47.3125 Q370.0625,49.4063 370.75,50.4844 Q371.4375,51.5469 372.7813,51.5469 Q373.4063,51.5469 374,51.2813 Q374.5938,51 375.2188,50.4219 L375.2188,53.1406 Z " fill="#000000"/><text fill="#000000" font-family="sans-serif" font-size="14" lengthAdjust="spacing" textLength="61" x="392.75" y="52.3467">Classifier</text><line style="stroke:#181818;stroke-width:0.5;" x1="223.5" x2="590.5" y1="63.5" y2="63.5"/><line style="stroke:#181818;stroke-width:0.5;" x1="223.5" x2="590.5" y1="71.5" y2="71.5"/><ellipse cx="233.5" cy="85.1484" fill="#84BE84" rx="3" ry="3" style="stroke:#038048;stroke-width:1.0;"/><text fill="#000000" font-family="sans-serif" font-size="14" lengthAdjust="spacing" textLength="343" x="242.5" y="88.4951">predict(comment: Comment): ClassificationResult</text></g><!--class ClassificationResult--><g id="elem_ClassificationResult"><rect codeLine="18" fill="#F1F1F1" height="80.5938" id="ClassificationResult" rx="2.5" ry="2.5" style="stroke:#181818;stroke-width:0.5;" width="189" x="312.5" y="188"/><ellipse cx="338.3" cy="204" fill="#ADD1B2" rx="11" ry="11" style="stroke:#181818;stroke-width:1.0;"/><path d="M341.2688,209.6406 Q340.6906,209.9375 340.05,210.0781 Q339.4094,210.2344 338.7063,210.2344 Q336.2063,210.2344 334.8781,208.5938 Q333.5656,206.9375 333.5656,203.8125 Q333.5656,200.6875 334.8781,199.0313 Q336.2063,197.375 338.7063,197.375 Q339.4094,197.375 340.05,197.5313 Q340.7063,197.6875 341.2688,197.9844 L341.2688,200.7031 Q340.6438,200.125 340.05,199.8594 Q339.4563,199.5781 338.8313,199.5781 Q337.4875,199.5781 336.8,200.6563 Q336.1125,201.7188 336.1125,203.8125 Q336.1125,205.9063 336.8,206.9844 Q337.4875,208.0469 338.8313,208.0469 Q339.4563,208.0469 340.05,207.7813 Q340.6438,207.5 341.2688,206.9219 L341.2688,209.6406 Z " fill="#000000"/><text fill="#000000" font-family="sans-serif" font-size="14" lengthAdjust="spacing" textLength="133" x="354.7" y="208.8467">ClassificationResult</text><line style="stroke:#181818;stroke-width:0.5;" x1="313.5" x2="500.5" y1="220" y2="220"/><ellipse cx="323.5" cy="233.6484" fill="none" rx="3" ry="3" style="stroke:#038048;stroke-width:1.0;"/><text fill="#000000" font-family="sans-serif" font-size="14" lengthAdjust="spacing" textLength="123" x="332.5" y="236.9951">sentiment : String</text><ellipse cx="323.5" cy="249.9453" fill="none" rx="3" ry="3" style="stroke:#038048;stroke-width:1.0;"/><text fill="#000000" font-family="sans-serif" font-size="14" lengthAdjust="spacing" textLength="163" x="332.5" y="253.292">is_dangerous : Boolean</text><line style="stroke:#181818;stroke-width:0.5;" x1="313.5" x2="500.5" y1="260.5938" y2="260.5938"/></g><!--link Comment to User--><g id="link_Comment_User"><path codeLine="23" d="M100,120.14 C100,137.77 100,157.21 100,174.65 " fill="none" id="Comment-to-User" style="stroke:#181818;stroke-width:1.0;"/><polygon fill="#181818" points="100,179.99,104,170.99,100,174.99,96,170.99,100,179.99" style="stroke:#181818;stroke-width:1.0;"/></g><!--link Classifier to ClassificationResult--><g id="link_Classifier_ClassificationResult"><path codeLine="24" d="M407,95.54 C407,120.24 407,155.12 407,182.82 " fill="none" id="Classifier-to-ClassificationResult" style="stroke:#181818;stroke-width:1.0;"/><polygon fill="#181818" points="407,187.91,411,178.91,407,182.91,403,178.91,407,187.91" style="stroke:#181818;stroke-width:1.0;"/></g><!--SRC=[RP312i8m38RlVOeU5TaBxE31xU9LsLb26qTWRKURWI2-kyt6TDDTMlw_oTS_CHsafAlW77hMJwNrWQmkTTESQn6C3yxoof5yEnhaC36uFhirC8eMVqWOfIzVwgMK6RcYDg1Iwy7X2apfveB521m4T0gXG_1VLYKdtMaczX4j6TwPANiv3x4lFwK6c8A_O1ew_WSjNoTaokqqBk8dc0NVOWn3MWURrrOKnsdmHKRnjdvw0m00]--></g></svg>