<?xml version="1.0" encoding="us-ascii" standalone="no"?><svg xmlns="http://www.w3.org/2000/svg" xmlns:xlink="http://www.w3.org/1999/xlink" contentStyleType="text/css" height="416px" preserveAspectRatio="none" style="width:608px;height:416px;background:#FFFFFF;" version="1.1" viewBox="0 0 608 416" width="608px" zoomAndPan="magnify"><defs/><g><ellipse cx="293.5" cy="20" fill="#222222" rx="10" ry="10" style="stroke:#222222;stroke-width:1.0;"/><rect fill="#F1F1F1" height="33.9688" rx="12.5" ry="12.5" style="stroke:#181818;stroke-width:0.5;" width="289" x="149" y="50"/><text fill="#000000" font-family="sans-serif" font-size="12" lengthAdjust="spacing" textLength="269" x="159" y="71.1387">&#1055;&#1086;&#1083;&#1100;&#1079;&#1086;&#1074;&#1072;&#1090;&#1077;&#1083;&#1100; &#1086;&#1090;&#1087;&#1088;&#1072;&#1074;&#1083;&#1103;&#1077;&#1090; &#1082;&#1086;&#1084;&#1084;&#1077;&#1085;&#1090;&#1072;&#1088;&#1080;&#1081;</text><rect fill="#F1F1F1" height="33.9688" rx="12.5" ry="12.5" style="stroke:#181818;stroke-width:0.5;" width="159" x="214" y="103.9688"/><text fill="#000000" font-family="sans-serif" font-size="12" lengthAdjust="spacing" textLength="139" x="224" y="125.1074">API &#1074;&#1099;&#1079;&#1099;&#1074;&#1072;&#1077;&#1090; &#1084;&#1086;&#1076;&#1077;&#1083;&#1100;</text><rect fill="#F1F1F1" height="33.9688" rx="12.5" ry="12.5" style="stroke:#181818;stroke-width:0.5;" width="245" x="171" y="157.9375"/><text fill="#000000" font-family="sans-serif" font-size="12" lengthAdjust="spacing" textLength="225" x="181" y="179.0762">&#1052;&#1086;&#1076;&#1077;&#1083;&#1100; &#1074;&#1086;&#1079;&#1074;&#1088;&#1072;&#1097;&#1072;&#1077;&#1090; &#1090;&#1086;&#1085;&#1072;&#1083;&#1100;&#1085;&#1086;&#1089;&#1090;&#1100;</text><polygon fill="#F1F1F1" points="222,211.9063,365,211.9063,377,223.9063,365,235.9063,222,235.9063,210,223.9063,222,211.9063" style="stroke:#181818;stroke-width:0.5;"/><text fill="#000000" font-family="sans-serif" font-size="11" lengthAdjust="spacing" textLength="143" x="222" y="227.7144">&#1053;&#1077;&#1075;&#1072;&#1090;&#1080;&#1074;&#1085;&#1099;&#1081; &#1080; &#1086;&#1087;&#1072;&#1089;&#1085;&#1099;&#1081;?</text><text fill="#000000" font-family="sans-serif" font-size="11" lengthAdjust="spacing" textLength="15" x="195" y="221.312">&#1076;&#1072;</text><rect fill="#F1F1F1" height="33.9688" rx="12.5" ry="12.5" style="stroke:#181818;stroke-width:0.5;" width="262" x="11" y="245.9063"/><text fill="#000000" font-family="sans-serif" font-size="12" lengthAdjust="spacing" textLength="242" x="21" y="267.0449">&#1050;&#1086;&#1084;&#1084;&#1077;&#1085;&#1090;&#1072;&#1088;&#1080;&#1081; &#1085;&#1072; &#1088;&#1091;&#1095;&#1085;&#1091;&#1102; &#1084;&#1086;&#1076;&#1077;&#1088;&#1072;&#1094;&#1080;&#1102;</text><rect fill="#F1F1F1" height="33.9688" rx="12.5" ry="12.5" style="stroke:#181818;stroke-width:0.5;" width="237" x="23.5" y="299.875"/><text fill="#000000" font-family="sans-serif" font-size="12" lengthAdjust="spacing" textLength="217" x="33.5" y="321.0137">&#1052;&#1086;&#1076;&#1077;&#1088;&#1072;&#1090;&#1086;&#1088; &#1087;&#1088;&#1080;&#1085;&#1080;&#1084;&#1072;&#1077;&#1090; &#1088;&#1077;&#1096;&#1077;&#1085;&#1080;&#1077;</text><rect fill="#F1F1F1" height="33.9688" rx="12.5" ry="12.5" style="stroke:#181818;stroke-width:0.5;" width="304" x="293" y="245.9063"/><text fill="#000000" font-family="sans-serif" font-size="12" lengthAdjust="spacing" textLength="284" x="303" y="267.0449">&#1050;&#1086;&#1084;&#1084;&#1077;&#1085;&#1090;&#1072;&#1088;&#1080;&#1081; &#1087;&#1091;&#1073;&#1083;&#1080;&#1082;&#1091;&#1077;&#1090;&#1089;&#1103; &#1072;&#1074;&#1090;&#1086;&#1084;&#1072;&#1090;&#1080;&#1095;&#1077;&#1089;&#1082;&#1080;</text><polygon fill="#F1F1F1" points="293.5,339.8438,305.5,351.8438,293.5,363.8438,281.5,351.8438,293.5,339.8438" style="stroke:#181818;stroke-width:0.5;"/><ellipse cx="293.5" cy="394.8438" fill="none" rx="11" ry="11" style="stroke:#222222;stroke-width:1.0;"/><ellipse cx="293.5" cy="394.8438" fill="#222222" rx="6" ry="6" style="stroke:#111111;stroke-width:1.0;"/><line style="stroke:#181818;stroke-width:1.0;" x1="293.5" x2="293.5" y1="30" y2="50"/><polygon fill="#181818" points="289.5,40,293.5,50,297.5,40,293.5,44" style="stroke:#181818;stroke-width:1.0;"/><line style="stroke:#181818;stroke-width:1.0;" x1="293.5" x2="293.5" y1="83.9688" y2="103.9688"/><polygon fill="#181818" points="289.5,93.9688,293.5,103.9688,297.5,93.9688,293.5,97.9688" style="stroke:#181818;stroke-width:1.0;"/><line style="stroke:#181818;stroke-width:1.0;" x1="293.5" x2="293.5" y1="137.9375" y2="157.9375"/><polygon fill="#181818" points="289.5,147.9375,293.5,157.9375,297.5,147.9375,293.5,151.9375" style="stroke:#181818;stroke-width:1.0;"/><line style="stroke:#181818;stroke-width:1.0;" x1="142" x2="142" y1="279.875" y2="299.875"/><polygon fill="#181818" points="138,289.875,142,299.875,146,289.875,142,293.875" style="stroke:#181818;stroke-width:1.0;"/><line style="stroke:#181818;stroke-width:1.0;" x1="210" x2="142" y1="223.9063" y2="223.9063"/><line style="stroke:#181818;stroke-width:1.0;" x1="142" x2="142" y1="223.9063" y2="245.9063"/><polygon fill="#181818" points="138,235.9063,142,245.9063,146,235.9063,142,239.9063" style="stroke:#181818;stroke-width:1.0;"/><line style="stroke:#181818;stroke-width:1.0;" x1="377" x2="445" y1="223.9063" y2="223.9063"/><line style="stroke:#181818;stroke-width:1.0;" x1="445" x2="445" y1="223.9063" y2="245.9063"/><polygon fill="#181818" points="441,235.9063,445,245.9063,449,235.9063,445,239.9063" style="stroke:#181818;stroke-width:1.0;"/><line style="stroke:#181818;stroke-width:1.0;" x1="142" x2="142" y1="333.8438" y2="351.8438"/><line style="stroke:#181818;stroke-width:1.0;" x1="142" x2="281.5" y1="351.8438" y2="351.8438"/><polygon fill="#181818" points="271.5,347.8438,281.5,351.8438,271.5,355.8438,275.5,351.8438" style="stroke:#181818;stroke-width:1.0;"/><line style="stroke:#181818;stroke-width:1.0;" x1="445" x2="445" y1="279.875" y2="351.8438"/><line style="stroke:#181818;stroke-width:1.0;" x1="445" x2="305.5" y1="351.8438" y2="351.8438"/><polygon fill="#181818" points="315.5,347.8438,305.5,351.8438,315.5,355.8438,311.5,351.8438" style="stroke:#181818;stroke-width:1.0;"/><line style="stroke:#181818;stroke-width:1.0;" x1="293.5" x2="293.5" y1="191.9063" y2="211.9063"/><polygon fill="#181818" points="289.5,201.9063,293.5,211.9063,297.5,201.9063,293.5,205.9063" style="stroke:#181818;stroke-width:1.0;"/><line style="stroke:#181818;stroke-width:1.0;" x1="293.5" x2="293.5" y1="363.8438" y2="383.8438"/><polygon fill="#181818" points="289.5,373.8438,293.5,383.8438,297.5,373.8438,293.5,377.8438" style="stroke:#181818;stroke-width:1.0;"/><!--SRC=[VL19JiD04BpFA_f8lc0V44TkV049HqH20M4_mB4b5WKbzoWHNp0X8q-yVg7wHzJO4N10oB9ckgQgkhhZvFenCG7UqQ7MDvGyzoWqW_MreEErrnG5uLhNi9e9Ah8QVXOjdmi-Enn34rnSNGhskaJ9dpOZko7xCFgHW-rFIJABaX8sqDUJW9OTMXO-KCi42ysyT3QLC-oe_1m2EefRzZaA77EY9xeOaVE99BVHdFG3YeaH2R3vAxBuDgAfvlfCFDVLTzeXqHEShi91l_q5Cv-cCgp5qS5HSqgUydZnFGZQq4HtSVHVzrvpVA1cKV561uww5h_hOGVDE2UpMKvMmT5nVZERcZYvV_W2]--></g></svg>